<svg width="40" height="40" viewBox="0 0 40 40" fill="none" xmlns="http://www.w3.org/2000/svg">
<rect width="40" height="40" rx="20" fill="#A3A3A3"/>
<path d="M13.3789 22.0488C13.0339 22.0488 12.7051 21.9544 12.3926 21.7656C12.0866 21.5703 11.8327 21.3164 11.6309 21.0039C11.4355 20.6849 11.3379 20.3366 11.3379 19.959C11.3379 19.5814 11.4355 19.2363 11.6309 18.9238C11.8327 18.6048 12.0866 18.3509 12.3926 18.1621C12.7051 17.9733 13.0339 17.8789 13.3789 17.8789H26.6113C26.9759 17.8789 27.3112 17.9733 27.6172 18.1621C27.9297 18.3509 28.1803 18.6048 28.3691 18.9238C28.5579 19.2363 28.6523 19.5814 28.6523 19.959C28.6523 20.3366 28.5579 20.6849 28.3691 21.0039C28.1803 21.3164 27.9297 21.5703 27.6172 21.7656C27.3112 21.9544 26.9759 22.0488 26.6113 22.0488H13.3789Z" fill="#525252"/>
</svg>
