<svg width="28" height="28" viewBox="0 0 28 28" fill="none" xmlns="http://www.w3.org/2000/svg">
<path d="M13.4492 26.6738C11.5977 26.6738 9.98047 26.3418 8.59766 25.6777C7.22266 25.0137 6.15234 24.084 5.38672 22.8887C4.62109 21.6934 4.23828 20.2949 4.23828 18.6934C4.23828 17.8496 4.30469 17.0996 4.4375 16.4434C4.57812 15.7871 4.74609 15.1973 4.94141 14.6738C5.14453 14.1426 5.34766 13.6426 5.55078 13.1738C5.75391 12.7051 5.92188 12.2402 6.05469 11.7793C6.1875 11.3184 6.25391 10.8262 6.25391 10.3027C6.25391 10.0449 6.23828 9.76367 6.20703 9.45898C6.18359 9.14648 6.17188 8.91602 6.17188 8.76758C6.17188 8.50977 6.24609 8.29883 6.39453 8.13477C6.54297 7.9707 6.73828 7.88867 6.98047 7.88867C7.39453 7.88867 7.8125 8.01367 8.23438 8.26367C8.66406 8.51367 9.04688 8.86133 9.38281 9.30664C9.72656 9.74414 9.98828 10.252 10.168 10.8301L9.58203 10.9473C9.76953 10.6191 9.88672 10.3301 9.93359 10.0801C9.98828 9.82227 10.0156 9.56055 10.0156 9.29492C10.0078 8.52148 9.86328 7.78711 9.58203 7.0918C9.30859 6.39648 8.95703 5.73633 8.52734 5.11133C8.10547 4.48633 7.66406 3.89648 7.20312 3.3418C7.07812 3.20117 6.98438 3.05664 6.92188 2.9082C6.85938 2.75977 6.82812 2.61133 6.82812 2.46289C6.82812 2.08789 6.98828 1.80664 7.30859 1.61914C7.63672 1.42383 8.07812 1.32617 8.63281 1.32617C9.66406 1.32617 10.75 1.45117 11.8906 1.70117C13.0391 1.94336 14.1758 2.32617 15.3008 2.84961C16.4336 3.36523 17.5078 4.02539 18.5234 4.83008C19.5391 5.62695 20.4375 6.57617 21.2188 7.67773C22.0078 8.77148 22.6289 10.0254 23.082 11.4395C23.5352 12.8535 23.7617 14.4355 23.7617 16.1855C23.7617 17.7559 23.5156 19.1855 23.0234 20.4746C22.5391 21.7637 21.8398 22.8691 20.9258 23.791C20.0117 24.7129 18.9219 25.4238 17.6562 25.9238C16.3984 26.4238 14.9961 26.6738 13.4492 26.6738ZM13.7188 23.3809C14.6484 23.3809 15.418 23.1777 16.0273 22.7715C16.6445 22.3652 17.1055 21.8301 17.4102 21.166C17.7148 20.502 17.8672 19.7832 17.8672 19.0098C17.8672 18.2441 17.7188 17.4746 17.4219 16.7012C17.1328 15.9277 16.6992 15.2129 16.1211 14.5566C15.543 13.9004 14.8242 13.3691 13.9648 12.9629C13.9102 12.9395 13.8672 12.9434 13.8359 12.9746C13.8047 12.998 13.793 13.0371 13.8008 13.0918C13.9023 14.0527 13.8867 14.9473 13.7539 15.7754C13.6211 16.5957 13.3984 17.2168 13.0859 17.6387C12.9375 17.3027 12.7695 16.9902 12.582 16.7012C12.4023 16.4043 12.1758 16.1348 11.9023 15.8926C11.8633 15.8613 11.8242 15.8535 11.7852 15.8691C11.7539 15.877 11.7344 15.9082 11.7266 15.9629C11.6797 16.2988 11.5703 16.6074 11.3984 16.8887C11.2266 17.1621 11.0391 17.4512 10.8359 17.7559C10.6328 18.0527 10.4531 18.3887 10.2969 18.7637C10.1484 19.1309 10.0742 19.5723 10.0742 20.0879C10.0742 21.0723 10.4062 21.8691 11.0703 22.4785C11.7422 23.0801 12.625 23.3809 13.7188 23.3809Z" fill="#A3A3A3"/>
</svg>
