<svg width="15" height="15" viewBox="0 0 15 15" fill="none" xmlns="http://www.w3.org/2000/svg">
<path d="M5.42969 13.0391L0.28125 7.89062C0.119792 7.72396 0.0390625 7.52604 0.0390625 7.29688C0.0390625 7.0625 0.119792 6.86458 0.28125 6.70312C0.447917 6.53646 0.645833 6.45312 0.875 6.45312C1.10938 6.45312 1.30729 6.53646 1.46875 6.70312L4.75 9.98438C4.77604 9.85938 4.80469 9.73177 4.83594 9.60156C4.8724 9.46615 4.91667 9.33333 4.96875 9.20312L0.242188 4.48438C0.0807292 4.32292 0 4.1276 0 3.89844C0 3.66406 0.0807292 3.46354 0.242188 3.29688C0.403646 3.13542 0.598958 3.05469 0.828125 3.05469C1.0625 3.05469 1.26302 3.13542 1.42969 3.29688L5.77344 7.64844C5.84115 7.54427 5.91146 7.44271 5.98438 7.34375C6.0625 7.24479 6.14062 7.14844 6.21875 7.05469L1.47656 2.3125C1.3151 2.14583 1.23438 1.94792 1.23438 1.71875C1.23438 1.48438 1.3151 1.28646 1.47656 1.125C1.63802 0.958333 1.83594 0.875 2.07031 0.875C2.30469 0.875 2.5026 0.958333 2.66406 1.125L7.46875 5.92969C7.57292 5.86198 7.67708 5.79688 7.78125 5.73438C7.89062 5.67188 7.99479 5.61719 8.09375 5.57031L3.95312 1.42969C3.79167 1.26823 3.71094 1.07292 3.71094 0.84375C3.71094 0.609375 3.79167 0.408854 3.95312 0.242188C4.11458 0.0807292 4.3125 0 4.54688 0C4.78125 0 4.97917 0.0807292 5.14062 0.242188L10.9297 6.03906C11.0286 6.13802 11.1146 6.1901 11.1875 6.19531C11.2604 6.19531 11.3255 6.16667 11.3828 6.10938C11.4297 6.0625 11.4557 6 11.4609 5.92188C11.4661 5.83854 11.4453 5.73438 11.3984 5.60938L10.5469 3.23438C10.4115 2.83854 10.3438 2.52344 10.3438 2.28906C10.349 2.04948 10.4401 1.84375 10.6172 1.67188C10.7734 1.51562 10.9453 1.4349 11.1328 1.42969C11.3255 1.41927 11.4948 1.48958 11.6406 1.64062C11.7292 1.72917 11.8281 1.86719 11.9375 2.05469C12.0469 2.23698 12.1589 2.4401 12.2734 2.66406C12.3932 2.88802 12.5052 3.10156 12.6094 3.30469C12.8125 3.67969 13.0026 4.04427 13.1797 4.39844C13.362 4.7474 13.5312 5.08854 13.6875 5.42188C13.8438 5.75521 13.987 6.08073 14.1172 6.39844C14.2474 6.71615 14.362 7.02865 14.4609 7.33594C14.8307 8.4401 14.9141 9.46354 14.7109 10.4062C14.513 11.3438 13.974 12.2526 13.0938 13.1328C12.5469 13.6797 11.9557 14.0938 11.3203 14.375C10.6849 14.6615 10.0286 14.8073 9.35156 14.8125C8.67969 14.8177 8.01042 14.6745 7.34375 14.3828C6.67708 14.0911 6.03906 13.6432 5.42969 13.0391Z" fill="#A3A3A3"/>
</svg>
