<svg width="28" height="28" viewBox="0 0 28 28" fill="none" xmlns="http://www.w3.org/2000/svg">
<path d="M17.0176 24.418V16.6719C17.0176 16.3984 16.9355 16.1836 16.7715 16.0273C16.6152 15.8633 16.4004 15.7812 16.127 15.7812H11.873C11.6074 15.7812 11.3887 15.8633 11.2168 16.0273C11.0527 16.1836 10.9707 16.3984 10.9707 16.6719V24.418H17.0176ZM3.66992 23.7148V14.4336L13.3027 6.35938C13.7715 5.96094 14.2402 5.96094 14.709 6.35938L24.3418 14.4336V23.7148C24.3418 24.5352 24.1074 25.1719 23.6387 25.625C23.1777 26.0781 22.5371 26.3047 21.7168 26.3047H6.30664C5.47852 26.3047 4.83008 26.0781 4.36133 25.625C3.90039 25.1719 3.66992 24.5352 3.66992 23.7148ZM0.0136719 13.2617C0.0136719 12.957 0.138672 12.7031 0.388672 12.5L12.5996 2.24609C13.0371 1.87891 13.5059 1.69531 14.0059 1.69531C14.5137 1.69531 14.9863 1.87891 15.4238 2.24609L27.623 12.5C27.8652 12.7031 27.9863 12.9688 27.9863 13.2969C27.9863 13.5781 27.8887 13.8008 27.6934 13.9648C27.498 14.1211 27.2637 14.1992 26.9902 14.1992C26.8262 14.1992 26.6738 14.1602 26.5332 14.082C26.4004 14.0039 26.2754 13.918 26.1582 13.8242L14.4277 3.98047C14.2949 3.86328 14.1543 3.80469 14.0059 3.80469C13.8652 3.80469 13.7285 3.86328 13.5957 3.98047L1.86523 13.8242C1.74023 13.918 1.60742 14.0039 1.4668 14.082C1.33398 14.1602 1.18555 14.1992 1.02148 14.1992C0.708984 14.1992 0.462891 14.1055 0.283203 13.918C0.103516 13.7227 0.0136719 13.5039 0.0136719 13.2617ZM21.4004 7.97656V5.04688C21.4004 4.78906 21.4785 4.58594 21.6348 4.4375C21.791 4.28125 21.9941 4.20312 22.2441 4.20312H23.498C23.7559 4.20312 23.959 4.28125 24.1074 4.4375C24.2637 4.58594 24.3418 4.78906 24.3418 5.04688V10.4609L21.4004 7.97656Z" fill="white"/>
</svg>
