<svg width="40" height="40" viewBox="0 0 40 40" fill="none" xmlns="http://www.w3.org/2000/svg">
<rect width="40" height="40" rx="20" fill="#A3A3A3"/>
<path d="M11.2988 19.959C11.2988 19.3796 11.5007 18.888 11.9043 18.4844C12.3145 18.0742 12.8092 17.8691 13.3887 17.8691H17.9199V13.3477C17.9199 12.7682 18.1217 12.2767 18.5254 11.873C18.929 11.4629 19.4206 11.2578 20 11.2578C20.5794 11.2578 21.071 11.4629 21.4746 11.873C21.8848 12.2767 22.0898 12.7682 22.0898 13.3477V17.8691H26.6211C27.194 17.8691 27.6823 18.0742 28.0859 18.4844C28.4961 18.888 28.7012 19.3796 28.7012 19.959C28.7012 20.5384 28.4961 21.0332 28.0859 21.4434C27.6823 21.847 27.194 22.0488 26.6211 22.0488H22.0898V26.5801C22.0898 27.153 21.8848 27.6413 21.4746 28.0449C21.071 28.4551 20.5794 28.6602 20 28.6602C19.4206 28.6602 18.929 28.4551 18.5254 28.0449C18.1217 27.6413 17.9199 27.153 17.9199 26.5801V22.0488H13.3887C12.8092 22.0488 12.3145 21.847 11.9043 21.4434C11.5007 21.0332 11.2988 20.5384 11.2988 19.959Z" fill="#525252"/>
</svg>
