<svg width="28" height="28" viewBox="0 0 28 28" fill="none" xmlns="http://www.w3.org/2000/svg">
<path d="M4.05664 25.3555C2.85352 25.3555 1.94727 25.0586 1.33789 24.4648C0.736328 23.8789 0.435547 22.9844 0.435547 21.7812V10.3789C0.435547 9.17578 0.736328 8.28125 1.33789 7.69531C1.94727 7.10156 2.85352 6.80469 4.05664 6.80469H23.9434C25.1543 6.80469 26.0605 7.10156 26.6621 7.69531C27.2637 8.28125 27.5645 9.17578 27.5645 10.3789V21.7812C27.5645 22.9844 27.2637 23.8789 26.6621 24.4648C26.0605 25.0586 25.1543 25.3555 23.9434 25.3555H4.05664ZM8.05273 7.82422V5.87891C8.05273 4.77734 8.34961 3.96484 8.94336 3.44141C9.53711 2.91016 10.334 2.64453 11.334 2.64453H16.6543C17.7168 2.64453 18.5293 2.91016 19.0918 3.44141C19.6543 3.96484 19.9355 4.77734 19.9355 5.87891V7.80078H18.1191V5.75C18.1191 5.30469 17.9941 4.96094 17.7441 4.71875C17.4941 4.47656 17.1426 4.35547 16.6895 4.35547H11.3105C10.8496 4.35547 10.4941 4.47656 10.2441 4.71875C9.99414 4.96094 9.86914 5.30469 9.86914 5.75V7.82422H8.05273Z" fill="#A3A3A3"/>
</svg>
