<svg width="34" height="34" viewBox="0 0 34 34" fill="none" xmlns="http://www.w3.org/2000/svg">
<path d="M16.5 27.1933C16.4089 27.1933 16.321 27.19 16.2363 27.1835C16.1517 27.177 16.0671 27.1705 15.9824 27.164L15.4941 28.0917C15.3965 28.2805 15.2533 28.4237 15.0645 28.5214C14.8757 28.6256 14.6738 28.6614 14.459 28.6288C14.2376 28.5898 14.0488 28.4888 13.8926 28.3261C13.7428 28.1698 13.6549 27.981 13.6289 27.7597L13.4824 26.7245C13.3197 26.6789 13.1569 26.6269 12.9941 26.5683C12.8314 26.5097 12.6751 26.4511 12.5254 26.3925L11.7539 27.0858C11.5977 27.2291 11.4089 27.3137 11.1875 27.3398C10.9727 27.3658 10.7708 27.3267 10.582 27.2226C10.3802 27.0989 10.237 26.9394 10.1523 26.744C10.0742 26.5487 10.0547 26.3469 10.0938 26.1386L10.3184 25.1132C10.1882 25.009 10.0547 24.9016 9.91797 24.7909C9.78125 24.6802 9.64779 24.5663 9.51758 24.4491L8.57031 24.8495C8.35547 24.9407 8.14388 24.9569 7.93555 24.8983C7.73372 24.8463 7.55794 24.7323 7.4082 24.5565C7.27799 24.4003 7.20312 24.2148 7.18359 23.9999C7.16406 23.7851 7.20964 23.5865 7.32031 23.4042L7.88672 22.496C7.80208 22.3593 7.71745 22.2161 7.63281 22.0663C7.54818 21.9166 7.4668 21.7668 7.38867 21.6171L6.35352 21.6659C6.13216 21.6789 5.92708 21.6236 5.73828 21.4999C5.55599 21.3762 5.42904 21.2069 5.35742 20.9921C5.28581 20.7968 5.28255 20.595 5.34766 20.3866C5.41276 20.1783 5.52995 20.009 5.69922 19.8788L6.51953 19.2343C6.48047 19.065 6.44466 18.8957 6.41211 18.7265C6.37956 18.5572 6.35352 18.3879 6.33398 18.2187L5.34766 17.8866C5.1263 17.815 4.95378 17.6946 4.83008 17.5253C4.70638 17.356 4.64453 17.164 4.64453 16.9491C4.64453 16.7278 4.70638 16.5325 4.83008 16.3632C4.95378 16.1939 5.1263 16.0735 5.34766 16.0019L6.33398 15.6796C6.35352 15.5103 6.37956 15.3443 6.41211 15.1815C6.44466 15.0123 6.48047 14.843 6.51953 14.6737L5.68945 14.0194C5.52669 13.8892 5.41276 13.7232 5.34766 13.5214C5.28255 13.3131 5.28581 13.108 5.35742 12.9062C5.42904 12.6978 5.55599 12.5351 5.73828 12.4179C5.92057 12.2942 6.1224 12.2356 6.34375 12.2421L7.38867 12.2812C7.4668 12.1249 7.54818 11.9752 7.63281 11.8319C7.71745 11.6822 7.80208 11.5325 7.88672 11.3827L7.33008 10.5038C7.2194 10.3215 7.17057 10.123 7.18359 9.90811C7.20312 9.69327 7.27799 9.50772 7.4082 9.35147C7.55794 9.17569 7.73372 9.06176 7.93555 9.00967C8.14388 8.95108 8.35221 8.9641 8.56055 9.04874L9.52734 9.43936C9.65755 9.32868 9.78776 9.22126 9.91797 9.11709C10.0547 9.00642 10.1882 8.89574 10.3184 8.78506L10.0938 7.7792C10.0482 7.55134 10.0677 7.33975 10.1523 7.14444C10.2435 6.94913 10.3802 6.79613 10.5625 6.68545C10.7708 6.58129 10.9824 6.54222 11.1973 6.56827C11.4121 6.59431 11.6009 6.6822 11.7637 6.83194L12.5254 7.51553C12.6751 7.45043 12.8314 7.38858 12.9941 7.32999C13.1569 7.27139 13.3197 7.21931 13.4824 7.17374L13.6289 6.14834C13.6549 5.92699 13.7428 5.73819 13.8926 5.58194C14.0423 5.41918 14.2214 5.32152 14.4297 5.28897C14.6641 5.24991 14.8757 5.2792 15.0645 5.37686C15.2533 5.47452 15.3965 5.61775 15.4941 5.80655L15.9824 6.73428C16.0671 6.72777 16.1517 6.72452 16.2363 6.72452C16.321 6.71801 16.4089 6.71475 16.5 6.71475C16.5846 6.71475 16.6693 6.71801 16.7539 6.72452C16.8385 6.72452 16.9264 6.72777 17.0176 6.73428L17.5059 5.79678C17.597 5.621 17.737 5.48428 17.9258 5.38663C18.1146 5.28246 18.3197 5.24665 18.541 5.2792C18.7624 5.31827 18.9479 5.41918 19.0977 5.58194C19.2474 5.73819 19.3385 5.92699 19.3711 6.14834L19.5078 7.17374C19.6706 7.21931 19.8333 7.27139 19.9961 7.32999C20.1589 7.38858 20.3184 7.45043 20.4746 7.51553L21.2461 6.82217C21.4023 6.67894 21.5846 6.59431 21.793 6.56827C22.0078 6.54222 22.2161 6.58129 22.418 6.68545C22.6068 6.79613 22.7435 6.94913 22.8281 7.14444C22.9193 7.33975 22.9421 7.54808 22.8965 7.76944L22.6719 8.78506C22.8086 8.89574 22.9421 9.00642 23.0723 9.11709C23.2025 9.22126 23.3294 9.32868 23.4531 9.43936L24.4297 9.04874C24.638 8.9641 24.8431 8.95108 25.0449 9.00967C25.2533 9.06176 25.4323 9.17569 25.582 9.35147C25.7122 9.50772 25.7839 9.69327 25.7969 9.90811C25.8164 10.123 25.7708 10.3215 25.6602 10.5038L25.1035 11.3827C25.2923 11.6952 25.4583 11.9947 25.6016 12.2812L26.6562 12.2421C26.8711 12.2356 27.0697 12.2942 27.252 12.4179C27.4408 12.5351 27.5677 12.7011 27.6328 12.9159C27.7044 13.1112 27.7077 13.3131 27.6426 13.5214C27.5775 13.7232 27.4603 13.8892 27.291 14.0194L26.4707 14.664C26.5098 14.8398 26.5456 15.0123 26.5781 15.1815C26.6172 15.3443 26.6465 15.5103 26.666 15.6796L27.6426 16.0019C28.1178 16.1581 28.3555 16.4739 28.3555 16.9491C28.3555 17.4179 28.1178 17.7304 27.6426 17.8866L26.666 18.2187C26.6465 18.3879 26.6172 18.5572 26.5781 18.7265C26.5456 18.8957 26.5098 19.065 26.4707 19.2343L27.3008 19.8788C27.4635 20.0025 27.5775 20.1718 27.6426 20.3866C27.7077 20.595 27.7044 20.8 27.6328 21.0019C27.5677 21.2102 27.4408 21.3762 27.252 21.4999C27.0697 21.6236 26.8711 21.6789 26.6562 21.6659L25.6016 21.6171C25.5234 21.7668 25.4421 21.9166 25.3574 22.0663C25.2793 22.2161 25.1947 22.3593 25.1035 22.496L25.6602 23.3944C25.7773 23.5898 25.8262 23.7916 25.8066 23.9999C25.7871 24.2148 25.7122 24.4003 25.582 24.5565C25.4323 24.7323 25.2533 24.8463 25.0449 24.8983C24.8366 24.9569 24.6348 24.9439 24.4395 24.8593L23.4727 24.4491C23.3424 24.5663 23.209 24.6802 23.0723 24.7909C22.9421 24.9016 22.8086 25.009 22.6719 25.1132L22.8965 26.1288C23.0072 26.5976 22.8542 26.9589 22.4375 27.2128C22.2357 27.3235 22.0273 27.3625 21.8125 27.33C21.5977 27.3039 21.4089 27.2193 21.2461 27.0761L20.4746 26.3925C20.3184 26.4511 20.1589 26.5097 19.9961 26.5683C19.8398 26.6269 19.6771 26.6789 19.5078 26.7245L19.3711 27.7597C19.3385 27.981 19.2474 28.1698 19.0977 28.3261C18.9479 28.4888 18.7689 28.5865 18.5605 28.619C18.3327 28.6581 18.1178 28.6256 17.916 28.5214C17.7207 28.4237 17.5807 28.2773 17.4961 28.0819L17.0176 27.164C16.9264 27.1705 16.8385 27.177 16.7539 27.1835C16.6693 27.19 16.5846 27.1933 16.5 27.1933ZM16.5 24.0976C17.4896 24.0976 18.4173 23.9153 19.2832 23.5507C20.1491 23.1796 20.9076 22.6653 21.5586 22.0077C22.2161 21.3502 22.7272 20.5917 23.0918 19.7323C23.4629 18.8664 23.6484 17.9387 23.6484 16.9491C23.6484 15.9595 23.4629 15.0351 23.0918 14.1757C22.7272 13.3098 22.2161 12.5481 21.5586 11.8905C20.9076 11.233 20.1491 10.7187 19.2832 10.3476C18.4173 9.97647 17.4896 9.79092 16.5 9.79092C15.5104 9.79092 14.5827 9.97647 13.7168 10.3476C12.8574 10.7187 12.099 11.233 11.4414 11.8905C10.7904 12.5481 10.2793 13.3098 9.9082 14.1757C9.54362 15.0351 9.36133 15.9595 9.36133 16.9491C9.36133 17.9387 9.54362 18.8664 9.9082 19.7323C10.2793 20.5917 10.7904 21.3502 11.4414 22.0077C12.099 22.6653 12.8574 23.1796 13.7168 23.5507C14.5827 23.9153 15.5104 24.0976 16.5 24.0976ZM13.8828 15.0644L10.9727 10.0253L13.3652 8.91202L16.1289 13.6874L13.8828 15.0644ZM19.4395 18.2675L19.4492 15.5722H25.0059V18.2675H19.4395ZM16.0801 20.1913L13.209 24.9276L10.8555 23.7655L13.8828 18.746L16.0801 20.1913ZM16.5 20.4159C15.862 20.4159 15.2793 20.2629 14.752 19.9569C14.2246 19.6444 13.8047 19.2245 13.4922 18.6972C13.1862 18.1698 13.0332 17.5871 13.0332 16.9491C13.0332 16.3111 13.1862 15.7284 13.4922 15.2011C13.8047 14.6737 14.2246 14.2571 14.752 13.9511C15.2793 13.6386 15.862 13.4823 16.5 13.4823C17.138 13.4823 17.7207 13.6386 18.248 13.9511C18.7754 14.2571 19.1921 14.6737 19.498 15.2011C19.8105 15.7284 19.9668 16.3111 19.9668 16.9491C19.9668 17.5871 19.8105 18.1698 19.498 18.6972C19.1921 19.2245 18.7754 19.6444 18.248 19.9569C17.7207 20.2629 17.138 20.4159 16.5 20.4159ZM16.5 18.1112C16.8255 18.1112 17.099 18.0006 17.3203 17.7792C17.5482 17.5513 17.6621 17.2746 17.6621 16.9491C17.6621 16.6236 17.5482 16.3502 17.3203 16.1288C17.099 15.9009 16.8255 15.787 16.5 15.787C16.1745 15.787 15.901 15.9009 15.6797 16.1288C15.4583 16.3502 15.3477 16.6236 15.3477 16.9491C15.3477 17.2746 15.4583 17.5513 15.6797 17.7792C15.901 18.0006 16.1745 18.1112 16.5 18.1112Z" fill="#D4D4D4"/>
</svg>
