<svg width="28" height="28" viewBox="0 0 28 28" fill="none" xmlns="http://www.w3.org/2000/svg">
<path d="M5.02344 20.375H7.89453C8.23828 20.375 8.51562 20.2695 8.72656 20.0586C8.9375 19.8477 9.04297 19.5781 9.04297 19.25V17.082C9.04297 16.7461 8.9375 16.4766 8.72656 16.2734C8.51562 16.0625 8.23828 15.957 7.89453 15.957H5.02344C4.67969 15.957 4.40234 16.0625 4.19141 16.2734C3.98047 16.4766 3.875 16.7461 3.875 17.082V19.25C3.875 19.5781 3.98047 19.8477 4.19141 20.0586C4.40234 20.2695 4.67969 20.375 5.02344 20.375ZM0.230469 11.375H27.7695V8.71484H0.230469V11.375ZM3.91016 24.0078C2.68359 24.0078 1.76172 23.7031 1.14453 23.0938C0.535156 22.4922 0.230469 21.5898 0.230469 20.3867V7.625C0.230469 6.41406 0.535156 5.50781 1.14453 4.90625C1.76172 4.29688 2.68359 3.99219 3.91016 3.99219H24.0898C25.3164 3.99219 26.2344 4.29688 26.8438 4.90625C27.4609 5.51562 27.7695 6.42188 27.7695 7.625V20.3867C27.7695 21.5898 27.4609 22.4922 26.8438 23.0938C26.2344 23.7031 25.3164 24.0078 24.0898 24.0078H3.91016Z" fill="#A3A3A3"/>
</svg>
