<svg width="40" height="40" viewBox="0 0 40 40" fill="none" xmlns="http://www.w3.org/2000/svg">
<rect width="40" height="40" rx="20" fill="#A3A3A3"/>
<path d="M9.75586 29.0117C9.08529 29.0117 8.57747 28.849 8.23242 28.5234C7.89388 28.2044 7.72461 27.7259 7.72461 27.0879V18.377C7.72461 17.7389 7.89388 17.2572 8.23242 16.9316C8.57747 16.6061 9.08529 16.4434 9.75586 16.4434H12.6562C13.3333 16.4434 13.8411 16.6061 14.1797 16.9316C14.5247 17.2572 14.6973 17.7389 14.6973 18.377V27.0879C14.6973 27.7259 14.5247 28.2044 14.1797 28.5234C13.8411 28.849 13.3333 29.0117 12.6562 29.0117H9.75586ZM18.5352 29.0117C17.8646 29.0117 17.3568 28.849 17.0117 28.5234C16.6732 28.2044 16.5039 27.7259 16.5039 27.0879V15.5352C16.5039 14.8971 16.6732 14.4154 17.0117 14.0898C17.3568 13.7643 17.8646 13.6016 18.5352 13.6016H21.4453C22.1159 13.6016 22.6204 13.7643 22.959 14.0898C23.304 14.4154 23.4766 14.8971 23.4766 15.5352V27.0879C23.4766 27.7259 23.304 28.2044 22.959 28.5234C22.6204 28.849 22.1159 29.0117 21.4453 29.0117H18.5352ZM27.3145 29.0117C26.6504 29.0117 26.1458 28.849 25.8008 28.5234C25.4622 28.2044 25.293 27.7259 25.293 27.0879V12.6836C25.293 12.0456 25.4622 11.5638 25.8008 11.2383C26.1458 10.9128 26.6504 10.75 27.3145 10.75H30.2246C30.9017 10.75 31.4095 10.9128 31.748 11.2383C32.0931 11.5638 32.2656 12.0456 32.2656 12.6836V27.0879C32.2656 27.7259 32.0931 28.2044 31.748 28.5234C31.4095 28.849 30.9017 29.0117 30.2246 29.0117H27.3145Z" fill="#525252"/>
</svg>
